<?xml version="1.0"?><svg xmlns="http://www.w3.org/2000/svg"  viewBox="0 0 100 100" width="50px" height="50px">    <path d="M 30.882812 17.654297 C 23.714813 17.654297 17.882812 23.486297 17.882812 30.654297 L 17.882812 69.654297 C 17.882812 76.822297 23.714812 82.654297 30.882812 82.654297 L 69.882812 82.654297 C 77.050813 82.654297 82.882812 76.822297 82.882812 69.654297 L 82.882812 30.654297 C 82.882812 23.485297 77.050812 17.654297 69.882812 17.654297 L 30.882812 17.654297 z M 30.882812 19.654297 L 69.882812 19.654297 C 75.947812 19.654297 80.882812 24.589297 80.882812 30.654297 L 80.882812 69.654297 C 80.882812 75.719297 75.947812 80.654297 69.882812 80.654297 L 30.882812 80.654297 C 24.817812 80.654297 19.882812 75.719297 19.882812 69.654297 L 19.882812 30.654297 C 19.882812 24.589297 24.817812 19.654297 30.882812 19.654297 z M 33.71875 22.652344 C 27.74275 22.652344 22.882813 27.514234 22.882812 33.490234 L 22.882812 66.816406 C 22.882812 72.792406 27.74275 77.652344 33.71875 77.652344 L 67.044922 77.652344 C 73.020922 77.652344 77.882812 72.792406 77.882812 66.816406 L 77.882812 48.154297 C 77.882812 47.877297 77.658812 47.654297 77.382812 47.654297 C 77.106813 47.654297 76.882812 47.878297 76.882812 48.154297 L 76.882812 66.816406 C 76.882812 72.240406 72.468922 76.654297 67.044922 76.654297 L 33.71875 76.654297 C 28.29475 76.654297 23.882813 72.240406 23.882812 66.816406 L 23.882812 33.490234 C 23.882812 28.066234 28.29475 23.652344 33.71875 23.652344 L 67.382812 23.652344 C 67.658812 23.652344 67.882812 23.428344 67.882812 23.152344 C 67.882812 22.876344 67.658812 22.652344 67.382812 22.652344 L 33.71875 22.652344 z M 50.013672 32.65625 C 48.532672 32.65625 43.515391 33.075703 41.150391 38.470703 C 40.351391 40.290703 40.543313 43.347641 40.695312 45.806641 C 40.712313 46.076641 40.727187 46.340656 40.742188 46.597656 C 40.630187 46.646656 40.452406 46.697266 40.191406 46.697266 C 39.749406 46.697266 39.221047 46.552578 38.623047 46.267578 C 37.827047 45.889578 36.351297 46.396313 36.154297 47.445312 C 36.050297 48.009313 36.285906 48.826578 38.003906 49.517578 C 38.147906 49.575578 38.329391 49.634266 38.525391 49.697266 C 39.178391 49.907266 40.166875 50.227844 40.421875 50.839844 C 40.551875 51.151844 40.495328 51.560656 40.236328 52.097656 C 40.149328 52.305656 37.990391 57.270547 33.275391 58.060547 C 32.839391 58.133547 32.527781 58.522562 32.550781 58.976562 C 32.559781 59.101562 32.589625 59.226656 32.640625 59.347656 C 33.013625 60.241656 34.548078 60.891891 37.330078 61.337891 C 37.403078 61.488891 37.486203 61.879609 37.533203 62.099609 C 37.592203 62.374609 37.653281 62.659172 37.738281 62.951172 C 37.816281 63.224172 38.048609 63.681641 38.724609 63.681641 C 38.964609 63.681641 39.237734 63.627453 39.552734 63.564453 C 40.259734 63.423453 41.472328 63.252844 42.736328 63.464844 C 43.600328 63.610844 44.385797 64.173484 45.216797 64.771484 C 46.492797 65.688484 47.938344 66.730469 50.152344 66.730469 C 50.222344 66.730469 50.295734 66.726656 50.302734 66.722656 C 50.398734 66.726656 50.492844 66.730469 50.589844 66.730469 C 52.803844 66.730469 54.250344 65.688531 55.527344 64.769531 C 56.356344 64.173531 57.139906 63.611844 58.003906 63.464844 C 58.454906 63.388844 58.901031 63.349609 59.332031 63.349609 C 60.077031 63.349609 60.665453 63.446781 61.189453 63.550781 C 61.351453 63.582781 61.498906 63.608 61.628906 63.625 L 62.017578 63.654297 L 62.017578 63.582031 C 62.279578 63.477031 62.468594 63.259219 62.558594 62.949219 C 62.638594 62.669219 62.699813 62.402813 62.757812 62.132812 C 62.795812 61.954813 62.878266 61.567109 62.947266 61.412109 C 65.637266 60.980109 67.121422 60.348281 67.482422 59.488281 C 67.535422 59.367281 67.565266 59.241328 67.572266 59.111328 C 67.595266 58.673328 67.289375 58.287844 66.859375 58.214844 C 62.291375 57.448844 60.229 52.666875 60.125 52.421875 C 59.894 51.945875 59.840844 51.554812 59.964844 51.257812 C 60.206844 50.674813 61.157781 50.367156 61.800781 50.160156 C 61.983781 50.101156 62.154016 50.045234 62.291016 49.990234 C 63.510016 49.500234 64.122375 48.884203 64.109375 48.158203 C 64.098375 47.587203 63.650375 47.059313 62.984375 46.820312 C 62.594375 46.654313 62.130281 46.513359 61.488281 46.818359 C 60.948281 47.075359 60.467656 47.212516 60.097656 47.228516 C 59.896656 47.220516 59.750297 47.180625 59.654297 47.140625 L 59.699219 46.388672 C 59.846219 44.011672 60.032344 41.052891 59.277344 39.337891 C 57.886344 34.966891 54.696672 32.65625 50.013672 32.65625 z M 50.050781 33.654297 C 54.278781 33.654297 57.06275 35.6675 58.34375 39.6875 C 59.01975 41.2295 58.845125 44.054172 58.703125 46.326172 L 58.628906 47.589844 L 58.783203 47.746094 C 58.887203 47.851094 59.287609 48.197563 60.099609 48.226562 C 60.644609 48.205562 61.255969 48.035703 61.917969 47.720703 C 62.071969 47.646703 62.361906 47.643859 62.628906 47.755859 C 62.937906 47.866859 63.108375 48.054781 63.109375 48.175781 C 63.112375 48.324781 62.864922 48.680547 61.919922 49.060547 C 61.801922 49.107547 61.650469 49.154938 61.480469 49.210938 C 60.675469 49.469938 59.460969 49.861141 59.042969 50.869141 C 58.803969 51.441141 58.863656 52.109609 59.222656 52.849609 C 59.316656 53.071609 61.539484 58.223969 66.521484 59.167969 C 66.354484 59.393969 65.646125 59.9745 62.703125 60.4375 C 62.078125 60.5345 61.932297 61.207875 61.779297 61.921875 C 61.729297 62.156875 61.679719 62.389234 61.636719 62.615234 C 61.564719 62.603234 61.481719 62.589312 61.386719 62.570312 C 60.812719 62.455312 60.165984 62.349609 59.333984 62.349609 C 58.848984 62.349609 58.345891 62.391562 57.837891 62.476562 C 56.744891 62.662562 55.870359 63.290031 54.943359 63.957031 C 53.676359 64.868031 52.481844 65.728516 50.589844 65.728516 C 50.508844 65.728516 50.427156 65.726609 50.285156 65.724609 C 50.241156 65.727609 50.197344 65.728516 50.152344 65.728516 C 48.260344 65.728516 47.065828 64.869031 45.798828 63.957031 C 44.870828 63.290031 43.994344 62.661562 42.902344 62.476562 C 42.396344 62.391562 41.894203 62.349609 41.408203 62.349609 C 40.531203 62.349609 39.851469 62.483031 39.355469 62.582031 C 39.104469 62.631031 38.873219 62.676828 38.699219 62.673828 C 38.622219 62.404828 38.564719 62.144625 38.511719 61.890625 C 38.353719 61.155625 38.203266 60.461281 37.572266 60.363281 C 34.551266 59.888281 33.797516 59.286625 33.603516 59.015625 C 38.737516 58.050625 41.059297 52.715234 41.154297 52.490234 C 41.527297 51.725234 41.592656 51.039172 41.347656 50.451172 C 40.913656 49.413172 39.661125 49.009234 38.828125 48.740234 C 38.661125 48.686234 38.503906 48.637891 38.378906 48.587891 C 37.334906 48.168891 37.110672 47.774953 37.138672 47.626953 C 37.183672 47.387953 37.630812 47.134766 38.007812 47.134766 C 38.106812 47.134766 38.164313 47.153969 38.195312 47.167969 C 38.927312 47.517969 39.600359 47.693359 40.193359 47.693359 C 41.076359 47.693359 41.508094 47.311359 41.621094 47.193359 L 41.769531 47.037109 L 41.757812 46.822266 C 41.739812 46.475266 41.718313 46.115188 41.695312 45.742188 C 41.549312 43.392187 41.367359 40.468141 42.068359 38.869141 C 44.189359 34.030141 48.686781 33.654297 50.050781 33.654297 z M 77.382812 37.654297 C 77.106813 37.654297 76.882812 37.877297 76.882812 38.154297 L 76.882812 40.154297 C 76.882812 40.430297 77.106813 40.654297 77.382812 40.654297 C 77.658812 40.654297 77.882812 40.430297 77.882812 40.154297 L 77.882812 38.154297 C 77.882812 37.878297 77.658812 37.654297 77.382812 37.654297 z M 77.382812 41.654297 C 77.106813 41.654297 76.882812 41.878297 76.882812 42.154297 L 76.882812 46.154297 C 76.882812 46.430297 77.106813 46.654297 77.382812 46.654297 C 77.658812 46.654297 77.882812 46.430297 77.882812 46.154297 L 77.882812 42.154297 C 77.882812 41.877297 77.658812 41.654297 77.382812 41.654297 z"/></svg>